<?xml version="1.0" encoding="UTF-8" standalone="no" ?>
<!DOCTYPE svg PUBLIC "-//W3C//DTD SVG 1.1//EN" "http://www.w3.org/Graphics/SVG/1.1/DTD/svg11.dtd">
<svg xmlns="http://www.w3.org/2000/svg" xmlns:xlink="http://www.w3.org/1999/xlink" version="1.1" width="1280" height="1024" viewBox="0 0 1280 1024" xml:space="preserve">
<desc>Created with Fabric.js 5.3.0</desc>
<defs>
</defs>
<g transform="matrix(1 0 0 1 640 512)" id="background-logo"  >
<rect style="stroke: none; stroke-width: 0; stroke-dasharray: none; stroke-linecap: butt; stroke-dashoffset: 0; stroke-linejoin: miter; stroke-miterlimit: 4; fill: rgb(255,255,255); fill-opacity: 0; fill-rule: nonzero; opacity: 1;"  paint-order="stroke"  x="-640" y="-512" rx="0" ry="0" width="1280" height="1024" />
</g>
<g transform="matrix(1.9211538461538462 0 0 1.9211538461538462 640 409.0414589806278)" id="logo-logo"  >
<g style=""  paint-order="stroke"   >
		<g transform="matrix(2.490915185975648 0 0 -2.490915185975648 0 -2.842171e-14)"  >
<path style="stroke: none; stroke-width: 1; stroke-dasharray: none; stroke-linecap: butt; stroke-dashoffset: 0; stroke-linejoin: miter; stroke-miterlimit: 4; fill: rgb(0,178,121); fill-rule: nonzero; opacity: 1;"  paint-order="stroke"  transform=" translate(37.727999999999994, 5.858499999999999)" d="M 0 0 L 0 -30.379 C 0 -30.932000000000002 -0.447 -31.379 -1 -31.379 C -1.553 -31.379 -2 -30.932000000000002 -2 -30.379 L -2 0 C -2 4.433 -5.606 8.04 -10.04 8.04 L -14.302 8.04 C -14.854 8.04 -15.302 8.488 -15.302 9.04 C -15.302 9.591999999999999 -14.854 10.04 -14.302 10.04 L -10.04 10.04 C -4.504 10.04 0 5.536 0 0 M 5.742 -31.149 C 5.742 -38.026 0.14700000000000024 -43.621 -6.729 -43.621 L -61.758 -43.621 C -68.635 -43.621 -74.23 -38.026 -74.23 -31.149 L -74.23 -4.432000000000002 C -74.23 2.4449999999999976 -68.635 8.039999999999997 -61.758 8.039999999999997 L -17.948 8.039999999999997 C -17.396 8.039999999999997 -16.948 8.487999999999998 -16.948 9.039999999999997 L -16.948 14.266999999999998 L -6.729 14.266999999999998 C 0.147 14.267 5.742 8.672 5.742 1.795 Z M -6.729 16.267 L -16.948 16.267 L -16.948 21.017 C -16.948 28.122999999999998 -22.729 33.903999999999996 -29.835 33.903999999999996 L -38.653 33.903999999999996 C -45.759 33.903999999999996 -51.54 28.122999999999998 -51.54 21.016999999999996 C -51.54 20.464999999999996 -51.092999999999996 20.016999999999996 -50.54 20.016999999999996 L -24.339 20.016999999999996 C -23.785999999999998 20.016999999999996 -23.339 20.464999999999996 -23.339 21.016999999999996 C -23.339 21.568999999999996 -23.785999999999998 22.016999999999996 -24.339 22.016999999999996 L -49.494 22.016999999999996 C -48.988 27.552999999999997 -44.319 31.903999999999996 -38.653 31.903999999999996 L -29.835 31.903999999999996 C -23.832 31.903999999999996 -18.948 27.019999999999996 -18.948 21.016999999999996 L -18.948 16.266999999999996 L -68.726 16.266999999999996 C -76.706 16.266999999999996 -83.198 9.773999999999996 -83.198 1.7949999999999964 L -83.198 -24.922000000000004 C -83.198 -27.713000000000005 -82.40199999999999 -30.422000000000004 -80.89599999999999 -32.757000000000005 C -80.59599999999999 -33.221000000000004 -79.97699999999999 -33.355000000000004 -79.51299999999999 -33.056000000000004 C -79.04899999999999 -32.75600000000001 -78.916 -32.13700000000001 -79.21499999999999 -31.673000000000005 C -80.51199999999999 -29.662000000000006 -81.198 -27.328000000000007 -81.198 -24.922000000000004 L -81.198 1.795 C -81.198 8.672 -75.603 14.267 -68.726 14.267 L -18.948 14.267 L -18.948 10.04 L -61.758 10.04 C -69.738 10.04 -76.23 3.547999999999999 -76.23 -4.432 L -76.23 -31.149 C -76.23 -39.128 -69.738 -45.621 -61.758 -45.621 L -6.728999999999999 -45.621 C 1.2500000000000009 -45.621 7.742000000000001 -39.128 7.742000000000001 -31.149 L 7.742000000000001 1.795 C 7.742000000000001 9.774000000000001 1.2500000000000009 16.267 -6.728999999999999 16.267" stroke-linecap="round" />
</g>
		<g transform="matrix(2.490915185975648 0 0 -2.490915185975648 6.184195132221646 29.72135090754304)"  >
<path style="stroke: none; stroke-width: 1; stroke-dasharray: none; stroke-linecap: butt; stroke-dashoffset: 0; stroke-linejoin: miter; stroke-miterlimit: 4; fill: rgb(255,3,67); fill-rule: nonzero; opacity: 1;"  paint-order="stroke"  transform=" translate(15.296, -4.089500000000003)" d="M 0 0 L -11.206 0 L -11.206 -11.206 L -19.386 -11.206 L -19.386 0 L -30.592 0 L -30.592 8.179 L -19.386 8.179 L -19.386 19.384999999999998 L -11.206 19.384999999999998 L -11.206 8.179 L 0 8.179 Z M 0.248 10.179 L -9.206000000000001 10.179 L -9.206000000000001 19.634 C -9.206000000000001 20.6 -9.992 21.385 -10.958000000000002 21.385 L -19.634 21.385 C -20.6 21.385 -21.386 20.6 -21.386 19.634 L -21.386 10.179 L -30.84 10.179 C -31.806 10.179 -32.592 9.394 -32.592 8.428 L -32.592 -0.24899999999999878 C -32.592 -1.2139999999999986 -31.805999999999997 -1.9999999999999987 -30.84 -1.9999999999999987 L -21.386 -1.9999999999999987 L -21.386 -11.454999999999998 C -21.386 -12.419999999999998 -20.599999999999998 -13.205999999999998 -19.634 -13.205999999999998 L -10.958 -13.205999999999998 C -9.992 -13.205999999999998 -9.206 -12.419999999999998 -9.206 -11.454999999999998 L -9.206 -2 L 0.248 -2 C 1.214 -2 2 -1.214 2 -0.249 L 2 8.427999999999999 C 2 9.393999999999998 1.214 10.178999999999998 0.248 10.178999999999998" stroke-linecap="round" />
</g>
		<g transform="matrix(2.490915185975648 0 0 -2.490915185975648 -37.8840799719851 -13.076557451816228)"  >
<path style="stroke: none; stroke-width: 1; stroke-dasharray: none; stroke-linecap: butt; stroke-dashoffset: 0; stroke-linejoin: miter; stroke-miterlimit: 4; fill: rgb(255,3,67); fill-rule: nonzero; opacity: 1;"  paint-order="stroke"  transform=" translate(1.3985000000000003, -5.2495)" d="M 0 0 L -2.797 0 C -3.108 0 -3.36 0.252 -3.36 0.563 L -3.36 3.2880000000000003 L -6.085 3.2880000000000003 C -6.396 3.2880000000000003 -6.648 3.54 -6.648 3.851 L -6.648 6.648 C -6.648 6.959 -6.396 7.212 -6.085 7.212 L -3.36 7.212 L -3.36 9.936 C -3.36 10.247 -3.1079999999999997 10.499 -2.7969999999999997 10.499 L 0 10.499 C 0.311 10.499 0.563 10.247 0.563 9.936 L 0.563 7.212 L 3.2880000000000003 7.212 C 3.599 7.212 3.851 6.959 3.851 6.648 L 3.851 3.851 C 3.851 3.54 3.599 3.288 3.288 3.288 L 0.563 3.288 L 0.563 0.563 C 0.563 0.252 0.311 0 0 0" stroke-linecap="round" />
</g>
</g>
</g>
<g transform="matrix(1.9211538461538462 0 0 1.9211538461538462 653.1983269230769 686.9471686856268)" id="text-logo"  >
<g style=""  paint-order="stroke"   >
		<g transform="matrix(1 0 0 1 0 0)" id="text-logo-path-0"  >
<path style="stroke: none; stroke-width: 0; stroke-dasharray: none; stroke-linecap: butt; stroke-dashoffset: 0; stroke-linejoin: miter; stroke-miterlimit: 4; fill: rgb(255,3,67); fill-rule: nonzero; opacity: 1;"  paint-order="stroke"  transform=" translate(-286.12, 14)" d="M 1.76 0 L 4.96 0 L 4.96 -11.72 L 9.92 -11.72 C 16.96 -11.72 19.32 -6.6 19.32 0 L 22.52 0 C 22.52 -4.96 21.04 -9.84 17.28 -12.56 C 19.96 -13.88 21.84 -16.68 21.84 -19.92 C 21.84 -24.32 18.16 -28 13.76 -28 L 1.76 -28 Z M 4.96 -14.72 L 4.96 -25 L 13.56 -25 C 16.36 -25 18.68 -22.68 18.68 -19.88 C 18.68 -17.04 16.36 -14.72 13.56 -14.72 Z M 34.04 -28 L 34.04 0 L 53.64 0 L 53.64 -3 L 37.24 -3 L 37.24 -12.52 L 49.64 -12.52 L 49.64 -15.52 L 37.24 -15.52 L 37.24 -25 L 53.64 -25 L 53.64 -28 Z M 76.36 -28 L 65.16 0 L 68.52 0 L 71.28 -6.92 L 85.76 -6.92 L 88.52 0 L 91.88 0 L 80.68 -28 Z M 72.48 -9.92 L 78.52 -25 L 84.56 -9.92 Z M 117.8 0.4 C 123.72 0.4 128.88 -3.24 131.04 -8.4 L 127.72 -8.4 C 125.92 -4.8 122.32 -2.6 117.8 -2.6 C 111.28 -2.6 106.6 -7.28 106.6 -14 C 106.6 -20.72 111.28 -25.4 117.8 -25.4 C 121.4 -25.4 124.44 -23.96 126.44 -21.56 L 128.8 -23.28 C 126.16 -26.4 122.2 -28.4 117.8 -28.4 C 109.88 -28.4 103.4 -21.92 103.4 -14 C 103.4 -6.08 109.88 0.4 117.8 0.4 Z M 151.36 0 L 154.56 0 L 154.56 -25 L 163.36 -25 L 163.36 -28 L 142.56 -28 L 142.56 -25 L 151.36 -25 Z M 190.88 0 L 194.08 0 L 194.08 -12.52 L 206.48 -12.52 L 206.48 -15.52 L 194.08 -15.52 L 194.08 -25 L 210.48 -25 L 210.48 -28 L 190.88 -28 Z M 233.2 -28 L 222 0 L 225.36 0 L 228.12 -6.92 L 242.6 -6.92 L 245.36 0 L 248.72 0 L 237.52 -28 Z M 229.32 -9.92 L 235.36 -25 L 241.4 -9.92 Z M 263.12 -7.64 L 260.24 -6.36 C 262 -2.56 265.96 0.4 270.8 0.4 C 277.48 0.4 281.28 -3.92 281.28 -7.76 C 281.28 -13.24 275.44 -14.6 270.96 -15.84 C 266.8 -17 263.88 -17.88 263.88 -20.72 C 263.88 -23.64 267.04 -25.4 270.12 -25.4 C 275.08 -25.4 276.32 -23.28 277.24 -20.96 L 280.2 -22.08 C 279.2 -24.64 277 -28.4 270.12 -28.4 C 265.96 -28.4 260.68 -25.56 260.68 -20.72 C 260.68 -15.64 265.8 -14.16 270.08 -12.96 C 274.56 -11.72 278.08 -10.88 278.08 -7.76 C 278.08 -5.2 275.8 -2.6 270.8 -2.6 C 267.2 -2.6 264.56 -4.56 263.12 -7.64 Z M 301.6 0 L 304.8 0 L 304.8 -25 L 313.6 -25 L 313.6 -28 L 292.8 -28 L 292.8 -25 L 301.6 -25 Z M 349.92 0 L 353.12 0 L 353.12 -25 L 361.92 -25 L 361.92 -28 L 341.12 -28 L 341.12 -25 L 349.92 -25 Z M 373.44 0 L 376.64 0 L 376.64 -11.72 L 381.6 -11.72 C 388.64 -11.72 391 -6.6 391 0 L 394.2 0 C 394.2 -4.96 392.72 -9.84 388.96 -12.56 C 391.64 -13.88 393.52 -16.68 393.52 -19.92 C 393.52 -24.32 389.84 -28 385.44 -28 L 373.44 -28 Z M 376.64 -14.72 L 376.64 -25 L 385.24 -25 C 388.04 -25 390.36 -22.68 390.36 -19.88 C 390.36 -17.04 388.04 -14.72 385.24 -14.72 Z M 416.92 -28 L 405.72 0 L 409.08 0 L 411.84 -6.92 L 426.32 -6.92 L 429.08 0 L 432.44 0 L 421.24 -28 Z M 413.04 -9.92 L 419.08 -25 L 425.12 -9.92 Z M 443.96 -28 L 443.96 0 L 447.16 0 L 447.16 -28 Z M 458.68 -28 L 458.68 0 L 461.88 0 L 461.88 -24.76 L 477.08 0 L 481.88 0 L 481.88 -28 L 478.68 -28 L 478.68 -3.24 L 463.48 -28 Z M 493.4 -28 L 493.4 0 L 496.6 0 L 496.6 -28 Z M 508.12 -28 L 508.12 0 L 511.32 0 L 511.32 -24.76 L 526.52 0 L 531.32 0 L 531.32 -28 L 528.12 -28 L 528.12 -3.24 L 512.92 -28 Z M 557.24 0.4 C 561.12 0.4 564.68 -1.16 567.28 -3.72 L 567.28 0 L 570.48 0 L 570.48 -13.8 L 557.68 -13.8 L 557.68 -10.8 L 567.28 -10.8 L 567.28 -8.72 C 565.48 -5.12 561.76 -2.6 557.24 -2.6 C 550.72 -2.6 546.04 -7.28 546.04 -14 C 546.04 -20.72 550.72 -25.4 557.24 -25.4 C 560.84 -25.4 563.88 -23.96 565.88 -21.56 L 568.24 -23.28 C 565.6 -26.4 561.64 -28.4 557.24 -28.4 C 549.32 -28.4 542.84 -21.92 542.84 -14 C 542.84 -6.08 549.32 0.4 557.24 0.4 Z" stroke-linecap="round" />
</g>
</g>
</g>
<g transform="matrix(1.9211538461538462 0 0 1.9211538461538462 654.4422740384617 774.3670358549292)" id="tagline-8cae713d-65e0-43e9-a4cc-a9c694e72be5-logo"  >
<g style=""  paint-order="stroke"   >
		<g transform="matrix(1 0 0 1 0 0)" id="tagline-8cae713d-65e0-43e9-a4cc-a9c694e72be5-logo-path-0"  >
<path style="stroke: none; stroke-width: 0; stroke-dasharray: none; stroke-linecap: butt; stroke-dashoffset: 0; stroke-linejoin: miter; stroke-miterlimit: 4; fill: rgb(0,178,121); fill-rule: nonzero; opacity: 1;"  paint-order="stroke"  transform=" translate(-277.99, 9.455)" d="M 10.04 -21.7 L 1.36 0 L 3.97 0 L 6.11 -5.36 L 17.33 -5.36 L 19.47 0 L 22.07 0 L 13.39 -21.7 Z M 7.04 -7.69 L 11.72 -19.38 L 16.4 -7.69 Z M 46.81 0.31 C 51.4 0.31 55.4 -2.51 57.07 -6.51 L 54.5 -6.51 C 53.1 -3.72 50.31 -2.02 46.81 -2.02 C 41.76 -2.02 38.13 -5.64 38.13 -10.85 C 38.13 -16.06 41.76 -19.68 46.81 -19.68 C 49.6 -19.68 51.96 -18.57 53.51 -16.71 L 55.34 -18.04 C 53.29 -20.46 50.22 -22.01 46.81 -22.01 C 40.67 -22.01 35.65 -16.99 35.65 -10.85 C 35.65 -4.71 40.67 0.31 46.81 0.31 Z M 77.47 0 L 79.95 0 L 79.95 -19.38 L 86.77 -19.38 L 86.77 -21.7 L 70.65 -21.7 L 70.65 -19.38 L 77.47 -19.38 Z M 117.4 0 L 119.88 0 L 119.88 -9.7 L 129.49 -9.7 L 129.49 -12.03 L 119.88 -12.03 L 119.88 -19.38 L 132.59 -19.38 L 132.59 -21.7 L 117.4 -21.7 Z M 154.84 -21.7 L 146.16 0 L 148.77 0 L 150.91 -5.36 L 162.13 -5.36 L 164.27 0 L 166.87 0 L 158.19 -21.7 Z M 151.84 -7.69 L 156.52 -19.38 L 161.2 -7.69 Z M 182.68 -5.92 L 180.45 -4.93 C 181.81 -1.98 184.88 0.31 188.63 0.31 C 193.81 0.31 196.76 -3.04 196.76 -6.01 C 196.76 -10.26 192.23 -11.31 188.76 -12.28 C 185.53 -13.18 183.27 -13.86 183.27 -16.06 C 183.27 -18.32 185.72 -19.68 188.11 -19.68 C 191.95 -19.68 192.91 -18.04 193.63 -16.24 L 195.92 -17.11 C 195.14 -19.1 193.44 -22.01 188.11 -22.01 C 184.88 -22.01 180.79 -19.81 180.79 -16.06 C 180.79 -12.12 184.76 -10.97 188.08 -10.04 C 191.55 -9.08 194.28 -8.43 194.28 -6.01 C 194.28 -4.03 192.51 -2.02 188.63 -2.02 C 185.84 -2.02 183.8 -3.53 182.68 -5.92 Z M 217.15 0 L 219.63 0 L 219.63 -19.38 L 226.45 -19.38 L 226.45 -21.7 L 210.33 -21.7 L 210.33 -19.38 L 217.15 -19.38 Z M 257.08 -21.7 L 257.08 3.1 L 259.25 3.1 L 259.25 -21.7 Z M 292.11 -5.92 L 289.88 -4.93 C 291.25 -1.98 294.31 0.31 298.06 0.31 C 303.24 0.31 306.19 -3.04 306.19 -6.01 C 306.19 -10.26 301.66 -11.31 298.19 -12.28 C 294.96 -13.18 292.7 -13.86 292.7 -16.06 C 292.7 -18.32 295.15 -19.68 297.54 -19.68 C 301.38 -19.68 302.34 -18.04 303.06 -16.24 L 305.35 -17.11 C 304.57 -19.1 302.87 -22.01 297.54 -22.01 C 294.31 -22.01 290.22 -19.81 290.22 -16.06 C 290.22 -12.12 294.19 -10.97 297.51 -10.04 C 300.98 -9.08 303.71 -8.43 303.71 -6.01 C 303.71 -4.03 301.94 -2.02 298.06 -2.02 C 295.27 -2.02 293.23 -3.53 292.11 -5.92 Z M 328.44 -21.7 L 319.76 0 L 322.37 0 L 324.51 -5.36 L 335.73 -5.36 L 337.87 0 L 340.47 0 L 331.79 -21.7 Z M 325.44 -7.69 L 330.12 -19.38 L 334.8 -7.69 Z M 361.8 0 L 365.15 0 L 372.9 -21.7 L 370.3 -21.7 L 363.48 -2.6 L 356.66 -21.7 L 354.05 -21.7 Z M 386.48 -21.7 L 386.48 0 L 401.67 0 L 401.67 -2.33 L 388.96 -2.33 L 388.96 -9.7 L 398.57 -9.7 L 398.57 -12.03 L 388.96 -12.03 L 388.96 -19.38 L 401.67 -19.38 L 401.67 -21.7 Z M 432.3 -21.7 L 432.3 0 L 447.49 0 L 447.49 -2.33 L 434.78 -2.33 L 434.78 -21.7 Z M 461.06 -21.7 L 461.06 0 L 463.54 0 L 463.54 -21.7 Z M 484.87 0 L 488.22 0 L 495.97 -21.7 L 493.37 -21.7 L 486.55 -2.6 L 479.73 -21.7 L 477.12 -21.7 Z M 509.55 -21.7 L 509.55 0 L 524.74 0 L 524.74 -2.33 L 512.03 -2.33 L 512.03 -9.7 L 521.64 -9.7 L 521.64 -12.03 L 512.03 -12.03 L 512.03 -19.38 L 524.74 -19.38 L 524.74 -21.7 Z M 540.55 -5.92 L 538.32 -4.93 C 539.68 -1.98 542.75 0.31 546.5 0.31 C 551.68 0.31 554.62 -3.04 554.62 -6.01 C 554.62 -10.26 550.1 -11.31 546.62 -12.28 C 543.4 -13.18 541.14 -13.86 541.14 -16.06 C 541.14 -18.32 543.59 -19.68 545.97 -19.68 C 549.82 -19.68 550.78 -18.04 551.49 -16.24 L 553.78 -17.11 C 553.01 -19.1 551.3 -22.01 545.97 -22.01 C 542.75 -22.01 538.66 -19.81 538.66 -16.06 C 538.66 -12.12 542.62 -10.97 545.94 -10.04 C 549.41 -9.08 552.14 -8.43 552.14 -6.01 C 552.14 -4.03 550.37 -2.02 546.5 -2.02 C 543.71 -2.02 541.66 -3.53 540.55 -5.92 Z" stroke-linecap="round" />
</g>
</g>
</g>
</svg>